# xmcd
#
# Track frame offsets: 
#        150
#        16797
#        27281
#        47375
#        61567
#        73526
#        105948
#        123986
#        144983
#        151960
#        158410
#        181840
#
# Disc length: 2677 seconds
#
# Revision: 0
# Processed by: cddbd v1.5.2PL0 Copyright (c) Steve Scherf et al.
# Submitted via: ExactAudioCopyFreeDBPlugin 1.0
#
DISCID=7d0a730c
DTITLE=Tony Joe White - Tony Joe White and friends
DYEAR=2007
DGENRE=Blues
TTITLE0=Pork salad Annie
TTITLE1=Canned Heat - Dimples
TTITLE2=Roosevelt and Ira Lee
TTITLE3=Baby please don't go
TTITLE4=John Mayall - Lost and Gone
TTITLE5=I want you baby
TTITLE6=So hard to handle
TTITLE7=Johnny Winter - Going down Slow
TTITLE8=You got me running
TTITLE9=Eric Clapton and Jimmy Page - Choker
TTITLE10=When you touch me
TTITLE11=Natural born Bugie
EXTD=
EXTT0=
EXTT1=
EXTT2=
EXTT3=
EXTT4=
EXTT5=
EXTT6=
EXTT7=
EXTT8=
EXTT9=
EXTT10=
EXTT11=
PLAYORDER=
